<?xml version="1.0" encoding="UTF-8" standalone="no"?>
<svg
   xmlns:dc="http://purl.org/dc/elements/1.1/"
   xmlns:cc="http://creativecommons.org/ns#"
   xmlns:rdf="http://www.w3.org/1999/02/22-rdf-syntax-ns#"
   xmlns:svg="http://www.w3.org/2000/svg"
   xmlns="http://www.w3.org/2000/svg"
   xmlns:sodipodi="http://sodipodi.sourceforge.net/DTD/sodipodi-0.dtd"
   xmlns:inkscape="http://www.inkscape.org/namespaces/inkscape"
   version="1.1"
   x="0px"
   y="0px"
   viewBox="0 0 100 125"
   id="svg10"
   sodipodi:docname="terminalMenu.svg"
   inkscape:version="1.0.1 (3bc2e813f5, 2020-09-07)">
  <metadata
     id="metadata16">
    <rdf:RDF>
      <cc:Work
         rdf:about="">
        <dc:format>image/svg+xml</dc:format>
        <dc:type
           rdf:resource="http://purl.org/dc/dcmitype/StillImage" />
      </cc:Work>
    </rdf:RDF>
  </metadata>
  <defs
     id="defs14" />
  <sodipodi:namedview
     pagecolor="#ffffff"
     bordercolor="#666666"
     borderopacity="1"
     objecttolerance="10"
     gridtolerance="10"
     guidetolerance="10"
     inkscape:pageopacity="0"
     inkscape:pageshadow="2"
     inkscape:window-width="1920"
     inkscape:window-height="1017"
     id="namedview12"
     showgrid="true"
     inkscape:zoom="90.509668"
     inkscape:cx="15.203731"
     inkscape:cy="26.053881"
     inkscape:window-x="-8"
     inkscape:window-y="144"
     inkscape:window-maximized="1"
     inkscape:current-layer="svg10"
     inkscape:snap-grids="false"
     inkscape:snap-to-guides="true">
    <inkscape:grid
       type="xygrid"
       id="grid74" />
  </sodipodi:namedview>
  <g
     transform="translate(0,-952.36218)"
     id="g4">
    <path
       id="path2"
       style="color:#000000;font-style:normal;font-variant:normal;font-weight:normal;font-stretch:normal;font-size:medium;line-height:normal;font-family:Sans;-inkscape-font-specification:Sans;text-indent:0;text-align:start;text-decoration:none;text-decoration-line:none;letter-spacing:normal;word-spacing:normal;text-transform:none;writing-mode:lr-tb;direction:ltr;baseline-shift:baseline;text-anchor:start;display:inline;overflow:visible;visibility:visible;opacity:1;fill:#000000;fill-opacity:1;stroke:none;stroke-width:4;marker:none;enable-background:accumulate"
       transform="translate(0,952.36218)"
       d="M 7.8125,18 C 6.7817889,18.097142 5.9955361,18.964731 6,20 v 60 c 1.105e-4,1.104524 0.8954763,1.999889 2,2 h 84 c 1.104524,-1.11e-4 1.999889,-0.895476 2,-2 V 20 c -1.11e-4,-1.104524 -0.895476,-1.999889 -2,-2 H 68 8 C 7.937534,17.9971 7.8749656,17.9971 7.8125,18 Z M 10,22 H 68 90 V 34 H 10 Z m 0,16 H 90 V 78 H 10 Z m 44.78125,4.96875 c -0.654317,0.0802 -1.227105,0.477642 -1.53125,1.0625 l -14,26 c -1.606406,2.424244 2.334826,4.570808 3.5,1.90625 l 14,-26 c 0.800753,-1.422189 -0.347062,-3.153022 -1.96875,-2.96875 z m 8.355469,1.994141 c -0.117553,-0.0087 -0.236824,-0.0065 -0.355469,0.0059 -1.919597,0.152133 -2.536652,2.662909 -0.90625,3.6875 l 9.5,6.34375 -9.5,6.3125 c -2.229166,1.499999 0.02083,4.843749 2.25,3.34375 l 12,-8 c 1.202915,-0.790022 1.202915,-2.553728 0,-3.34375 l -12,-8 c -0.294434,-0.203392 -0.635624,-0.32343 -0.988281,-0.349609 z m -27.167969,0.0059 c -0.379619,0.01139 -0.748151,0.130619 -1.0625,0.34375 l -12,8 c -1.210393,0.778727 -1.226878,2.542537 -0.03125,3.34375 l 12,8 c 2.229166,1.499999 4.479166,-1.843751 2.25,-3.34375 L 27.625,55 l 9.5,-6.34375 c 1.728882,-1.096551 0.889209,-3.774429 -1.15625,-3.6875 z" />
  </g>
  <ellipse
     style="fill:#000000"
     id="path51"
     cx="15.000001"
     cy="27.481617"
     rx="2.5367646"
     ry="2.5" />
  <ellipse
     style="fill:#000000"
     id="path51-8"
     cx="22.536764"
     cy="27.5"
     rx="2.5367646"
     ry="2.5" />
  <ellipse
     style="fill:#000000"
     id="path51-3"
     cx="29.889708"
     cy="27.463236"
     rx="2.5367646"
     ry="2.5" />
  <path
     style="fill:#ff0000;stroke-width:0.0078125"
     d="m 14.795294,29.970449 c -0.256544,-0.02293 -0.51028,-0.08232 -0.736681,-0.172429 -0.481832,-0.191771 -0.891133,-0.522849 -1.177353,-0.952347 -0.224781,-0.337303 -0.357337,-0.706761 -0.402223,-1.121069 -0.01235,-0.113958 -0.01035,-0.395874 0.0037,-0.51565 0.06475,-0.553857 0.297423,-1.045303 0.683696,-1.444075 0.410382,-0.423661 0.914919,-0.676786 1.515625,-0.760386 0.139942,-0.01948 0.495182,-0.01934 0.636719,2.45e-4 0.682689,0.09446 1.261601,0.420603 1.680141,0.946536 0.279989,0.351832 0.454697,0.769389 0.516412,1.234243 0.01856,0.139813 0.01848,0.452312 -1.53e-4,0.59375 -0.07375,0.559803 -0.318007,1.058276 -0.710932,1.450881 -0.407483,0.407153 -0.916274,0.654649 -1.498791,0.729071 -0.114898,0.01468 -0.401045,0.02098 -0.510114,0.01123 z"
     id="path78" />
  <path
     style="fill:#ff0000;stroke-width:0.00390625"
     d=""
     id="path80" />
  <path
     style="fill:#ff0000;stroke-width:0.00390625"
     d=""
     id="path82" />
  <path
     style="fill:#ff0000;stroke-width:0.00390625"
     d=""
     id="path84" />
  <path
     style="fill:#ff0000;stroke-width:0.00390625"
     d=""
     id="path86" />
  <path
     style="fill:#008000;stroke-width:0.00390625"
     d=""
     id="path88" />
  <path
     style="fill:#008000;stroke-width:0.0078125"
     d="m 22.413729,29.993597 c -0.02793,-0.0013 -0.1,-0.0079 -0.160156,-0.01457 -0.579538,-0.06424 -1.108347,-0.318149 -1.519735,-0.72972 -0.402839,-0.403019 -0.649695,-0.915575 -0.715023,-1.484626 -0.01781,-0.155175 -0.01236,-0.474046 0.01063,-0.621093 0.08449,-0.540545 0.325423,-1.016247 0.707267,-1.396453 0.415777,-0.413992 0.944582,-0.664914 1.536471,-0.729067 0.166085,-0.018 0.471438,-0.01222 0.628833,0.01191 0.562983,0.0863 1.037449,0.323575 1.430043,0.715145 0.144251,0.143875 0.218023,0.233522 0.327787,0.398327 0.210441,0.315966 0.337026,0.657791 0.392071,1.058732 0.01852,0.1349 0.01851,0.456574 -2.4e-5,0.595438 -0.0573,0.42938 -0.209988,0.815216 -0.456128,1.152633 -0.450575,0.61766 -1.136562,0.991033 -1.912499,1.040945 -0.112851,0.0073 -0.160043,0.0077 -0.269532,0.0024 z"
     id="path90" />
  <path
     style="fill:#d4aa00;stroke-width:0.0078125"
     d="m 29.607068,29.943852 c -0.916782,-0.10448 -1.700403,-0.686059 -2.056906,-1.526572 -0.130012,-0.306524 -0.190548,-0.612725 -0.189979,-0.960937 4.46e-4,-0.272762 0.03467,-0.493794 0.115519,-0.746094 0.21873,-0.682565 0.736822,-1.249162 1.403596,-1.535003 0.568037,-0.243513 1.208375,-0.273952 1.791584,-0.08516 0.649209,0.210153 1.178825,0.659104 1.482716,1.256886 0.425151,0.836312 0.339493,1.839553 -0.220989,2.588258 -0.435116,0.581238 -1.07446,0.940086 -1.804884,1.013036 -0.110923,0.01108 -0.406737,0.0086 -0.520657,-0.0044 z"
     id="path92" />
</svg>
